PathFileType	4	(X/Y/Z)	D:\TRACE\v60_Jaco2_6-2-23\BothDRS_Motion1_4-platform.trc
DataRate	CameraRate	NumFrames	NumMarkers	Units	OrigDataRate	OrigDataStartFrame	OrigNumFrames
100.00	100.00	      24	5	mm	100.00	3490	      6979
Frame#	Time	Left_Front			Right_Front			Left_Aft			Right_Aft			Post			
		X1	Y1	Z1	X2	Y2	Z2	X3	Y3	Z3	X4	Y4	Z4	X5	Y5	Z5	

3490	34.890	-765.92487	7.70808	-639.44293	803.99738	9.08661	-644.72949	-673.77161	8.22301	495.77417	768.36407	7.89743	505.45129	19.97429	1306.47461	-965.10803	
3491	34.900	-765.20801	7.25056	-639.61346	804.82629	8.75733	-644.91742	-673.30652	8.25104	495.74408	768.95905	8.11411	505.39642	21.05233	1305.89844	-966.09833	
3492	34.910	-764.16241	7.04215	-639.79419	805.68909	8.37719	-644.96405	-672.41455	8.49281	495.61475	769.84442	8.29074	505.23090	21.36395	1305.39783	-966.57397	
3493	34.920	-763.41589	6.95278	-639.83875	806.38159	7.99020	-645.05591	-671.58197	8.70436	495.46106	770.49762	8.57677	505.02487	22.79317	1304.92761	-967.35974	
3494	34.930	-762.76947	6.35394	-639.74261	806.99957	7.69361	-645.01245	-670.85791	9.02934	495.28448	771.66473	8.97274	504.92868	23.14084	1304.39563	-967.89008	
3495	34.940	-762.29413	5.89521	-639.77344	807.64600	7.41948	-645.21332	-670.21844	9.34694	495.21863	772.10638	9.12886	504.78458	23.46232	1303.82263	-968.68274	
3496	34.950	-761.38086	5.51000	-640.08875	808.49261	6.93113	-645.29187	-669.47565	9.51058	495.07181	772.69495	9.34751	504.64618	24.17177	1303.15564	-969.15149	
3497	34.960	-760.53998	5.09400	-640.15430	809.23090	6.56422	-645.38379	-668.75159	9.79988	495.09702	773.43701	9.65552	504.44650	25.14198	1302.52234	-969.59949	
3498	34.970	-760.01337	4.82831	-640.20349	809.90808	6.29157	-645.43646	-668.25934	10.07338	495.10052	773.90808	9.83582	504.46091	25.96422	1302.08179	-970.43671	
3499	34.980	-759.24677	4.41000	-640.29456	810.51691	6.09360	-645.50934	-667.59631	10.40373	495.01517	774.85095	10.24387	504.40817	26.62961	1301.60364	-971.30579	
3500	34.990	-758.88080	4.23785	-640.44769	811.17230	5.69009	-645.63715	-666.78687	10.67792	494.80353	775.52673	10.50126	504.33307	26.73885	1301.17395	-972.35828	
3501	35.000	-758.05035	3.83201	-640.67670	811.79773	5.39236	-645.62671	-666.30505	10.69801	494.59335	775.95831	10.66619	504.26810	27.71141	1300.46460	-973.37769	
3502	35.010	-757.41864	3.47959	-640.72253	812.60730	5.02148	-645.68793	-665.73926	10.98779	494.40610	776.70544	10.96224	504.21768	28.59511	1299.88196	-974.23505	
3503	35.020	-756.88831	3.04344	-640.73877	813.20636	4.61439	-645.77844	-665.15717	11.14640	494.39380	777.32428	11.22234	504.20740	28.86655	1299.47327	-975.38184	
3504	35.030	-756.33289	2.72692	-640.69501	813.63519	4.24671	-645.96277	-664.61578	11.38528	494.33618	777.84967	11.50200	504.15045	29.17837	1299.11865	-976.01556	
3505	35.040	-755.98541	2.25652	-640.72021	813.97876	3.91339	-645.94598	-663.76440	11.74093	494.32535	778.35236	11.78818	504.03021	30.13341	1298.70081	-976.90283	
3506	35.050	-755.36438	1.90946	-640.90265	814.55365	3.55239	-645.95074	-663.36169	11.97483	494.31158	778.89771	11.99094	503.90277	30.70616	1297.93054	-977.53687	
3507	35.060	-754.77545	1.51284	-640.95911	815.03314	3.21150	-646.12097	-663.06726	12.31909	494.27023	779.37073	12.17819	503.81589	30.99064	1297.41309	-978.24945	
3508	35.070	-754.20398	1.21020	-641.13269	815.49518	2.73111	-646.44977	-662.65192	12.51729	494.16995	779.85272	12.38701	503.69553	31.62025	1296.90356	-978.79065	
3509	35.080	-753.77551	0.87891	-641.23291	816.01355	2.42355	-646.56232	-662.02521	12.66122	494.08780	780.41370	12.77320	503.61133	31.73255	1296.27197	-979.11462	
3510	35.090	-753.31580	0.54625	-641.26483	816.44360	2.13091	-646.63037	-661.55341	12.84052	493.87518	780.88696	13.02522	503.57254	32.09451	1295.88916	-979.59119	
3511	35.100	-752.92297	0.16667	-641.35919	816.72699	1.95003	-646.63275	-661.12964	13.07103	493.63184	780.94873	13.06431	502.89246	32.46818	1295.40100	-980.41138	
3512	35.110	-752.80261	0.06243	-641.25928	817.07007	1.51504	-646.76923	-660.69061	13.34640	493.58807	781.50397	13.45672	503.29544	33.13469	1294.86755	-980.83844	
3513	35.120	-752.43744	-0.34349	-641.47620	817.51929	0.99546	-646.82153	-660.34369	13.60661	493.64267	781.83209	13.68724	503.25046	33.48261	1294.34900	-982.09900	
